<?xml version="1.0" encoding="UTF-8"?><svg xmlns="http://www.w3.org/2000/svg" xmlns:xlink="http://www.w3.org/1999/xlink" viewBox="0 0 415.64 242.09"><defs><style>.f{fill:#fff;}.g{fill:#33f;}.h{fill:url(#e);}.h,.i{mix-blend-mode:multiply;}.i{fill:url(#d);}.j{isolation:isolate;}</style><linearGradient id="d" x1="239.91" y1="154.23" x2="415.64" y2="154.23" gradientTransform="matrix(1, 0, 0, 1, 0, 0)" gradientUnits="userSpaceOnUse"><stop offset="0" stop-color="#202dff"/><stop offset="1" stop-color="#1d8aff"/></linearGradient><linearGradient id="e" x1="178.79" y1="63.19" x2="305.17" y2="63.19" xlink:href="#d"/></defs><g class="j"><g id="a"/><g id="b"><g id="c"><rect class="i" x="239.91" y="66.36" width="175.72" height="175.72" rx="34.75" ry="34.75"/><rect class="h" x="178.79" width="126.38" height="126.38" rx="24.83" ry="24.83"/><g><path class="f" d="M269.98,221.47c-1.28,0-2.35-.44-3.2-1.31-.85-.88-1.27-1.93-1.27-3.15s.41-2.33,1.23-3.15l24.87-29.07c1.75-2.04,3.11-3.97,4.07-5.78,.96-1.81,1.45-3.53,1.45-5.17,0-2.57-.44-4.79-1.31-6.66-.88-1.87-2.13-3.31-3.77-4.33-1.64-1.02-3.59-1.53-5.87-1.53s-4.22,.57-6,1.71c-1.78,1.14-3.18,2.66-4.2,4.55-1.02,1.9-1.53,3.98-1.53,6.26,0,1.17-.42,2.19-1.27,3.07-.85,.88-1.91,1.31-3.2,1.31s-2.28-.44-3.15-1.31-1.31-1.9-1.31-3.07c0-3.97,.9-7.52,2.71-10.64,1.81-3.12,4.28-5.59,7.4-7.4,3.12-1.81,6.64-2.71,10.55-2.71s7.41,.85,10.33,2.54c2.92,1.69,5.18,4.09,6.79,7.18,1.61,3.1,2.41,6.77,2.41,11.03,0,1.87-.39,3.77-1.18,5.69-.79,1.93-1.78,3.77-2.98,5.52-1.2,1.75-2.41,3.33-3.63,4.73l-20.05,22.77h24.52c1.28,0,2.37,.45,3.24,1.36,.88,.91,1.31,1.94,1.31,3.11,0,1.23-.44,2.28-1.31,3.15-.88,.88-1.96,1.31-3.24,1.31h-32.4Z"/><path class="f" d="M337.67,221.47c-4.03,0-7.6-.89-10.73-2.67-3.12-1.78-5.56-4.23-7.31-7.36-1.75-3.12-2.63-6.7-2.63-10.73s.88-7.69,2.63-10.82c1.75-3.12,4.19-5.58,7.31-7.36,3.12-1.78,6.7-2.67,10.73-2.67s7.59,.89,10.68,2.67c3.09,1.78,5.52,4.23,7.27,7.36,1.75,3.12,2.63,6.73,2.63,10.82s-.88,7.61-2.63,10.73c-1.75,3.12-4.17,5.58-7.27,7.36-3.1,1.78-6.66,2.67-10.68,2.67Zm-17.78-31.96l20.32-33.89c1.05-1.63,2.39-2.45,4.03-2.45,1.23,0,2.25,.35,3.07,1.05,.82,.7,1.33,1.58,1.53,2.63,.2,1.05-.01,2.1-.66,3.15l-12.44,20.67-15.85,8.84Zm17.69,24.08c2.39,0,4.51-.54,6.35-1.62,1.84-1.08,3.28-2.6,4.33-4.55,1.05-1.96,1.58-4.19,1.58-6.7s-.53-4.82-1.58-6.74-2.5-3.44-4.33-4.55c-1.84-1.11-3.96-1.66-6.35-1.66s-4.51,.56-6.35,1.66c-1.84,1.11-3.27,2.63-4.29,4.55-1.02,1.93-1.53,4.17-1.53,6.74s.51,4.74,1.53,6.7c1.02,1.96,2.45,3.47,4.29,4.55,1.84,1.08,3.96,1.62,6.35,1.62Z"/></g><g><path class="g" d="M24.17,221.82c-4.67,0-8.83-1.06-12.48-3.2-3.65-2.13-6.51-5.02-8.58-8.67-2.07-3.65-3.11-7.78-3.11-12.39s1.02-8.93,3.07-12.61c2.04-3.68,4.84-6.55,8.41-8.63,3.56-2.07,7.65-3.11,12.26-3.11,3.44,0,6.6,.66,9.46,1.97,2.86,1.31,5.43,3.28,7.71,5.91,.82,.93,1.11,1.9,.88,2.89-.23,.99-.88,1.87-1.93,2.63-.82,.58-1.72,.77-2.71,.57-.99-.2-1.9-.71-2.71-1.53-2.86-3.04-6.42-4.55-10.68-4.55-2.98,0-5.6,.69-7.88,2.06-2.28,1.37-4.06,3.28-5.34,5.74-1.29,2.45-1.93,5.34-1.93,8.67,0,3.15,.66,5.95,1.97,8.41s3.14,4.39,5.47,5.82c2.33,1.43,5.05,2.15,8.14,2.15,2.04,0,3.84-.25,5.39-.74s2.96-1.27,4.25-2.32c.93-.76,1.9-1.18,2.89-1.27,.99-.09,1.87,.19,2.63,.83,.99,.82,1.55,1.74,1.66,2.76,.12,1.02-.23,1.94-1.05,2.76-4.2,3.91-9.46,5.87-15.76,5.87Z"/><path class="g" d="M75.23,221.9c-4.03,0-7.63-.86-10.82-2.58-3.18-1.72-5.69-4.25-7.53-7.58s-2.76-7.41-2.76-12.26v-21.54c0-1.28,.42-2.35,1.27-3.2,.85-.85,1.91-1.27,3.2-1.27s2.35,.42,3.2,1.27c.85,.85,1.27,1.91,1.27,3.2v21.54c0,3.27,.61,5.97,1.84,8.1,1.23,2.13,2.89,3.71,4.99,4.73,2.1,1.02,4.47,1.53,7.09,1.53s4.74-.5,6.7-1.49c1.96-.99,3.52-2.33,4.69-4.03,1.17-1.69,1.75-3.59,1.75-5.69h5.52c0,3.62-.89,6.89-2.67,9.81-1.78,2.92-4.2,5.23-7.27,6.92-3.07,1.69-6.55,2.54-10.47,2.54Zm19.35-.44c-1.29,0-2.35-.42-3.2-1.27-.85-.85-1.27-1.91-1.27-3.2v-39.06c0-1.34,.42-2.42,1.27-3.24,.85-.82,1.91-1.23,3.2-1.23s2.42,.41,3.24,1.23c.82,.82,1.23,1.9,1.23,3.24v39.06c0,1.28-.41,2.35-1.23,3.2-.82,.85-1.9,1.27-3.24,1.27Z"/><path class="g" d="M138.89,221.82c-4.55,0-8.64-1.06-12.26-3.2-3.62-2.13-6.48-5.04-8.58-8.71-2.1-3.68-3.18-7.82-3.24-12.44v-39.93c0-1.34,.42-2.42,1.27-3.24,.85-.82,1.91-1.23,3.2-1.23s2.42,.41,3.24,1.23c.82,.82,1.23,1.9,1.23,3.24v23.64c2.04-2.45,4.51-4.39,7.4-5.82,2.89-1.43,6.06-2.15,9.5-2.15,4.26,0,8.09,1.07,11.47,3.2,3.38,2.13,6.06,5.02,8.01,8.67,1.96,3.65,2.93,7.78,2.93,12.39s-1.07,8.76-3.2,12.44c-2.13,3.68-5.01,6.58-8.63,8.71-3.62,2.13-7.74,3.2-12.35,3.2Zm0-7.88c2.98,0,5.63-.71,7.97-2.15,2.33-1.43,4.19-3.4,5.56-5.91,1.37-2.51,2.06-5.31,2.06-8.41s-.69-5.96-2.06-8.41c-1.37-2.45-3.23-4.39-5.56-5.82-2.34-1.43-4.99-2.15-7.97-2.15s-5.56,.72-7.93,2.15-4.22,3.37-5.56,5.82c-1.34,2.45-2.01,5.25-2.01,8.41s.67,5.9,2.01,8.41c1.34,2.51,3.2,4.48,5.56,5.91,2.36,1.43,5.01,2.15,7.93,2.15Z"/><path class="g" d="M198.88,221.82c-4.85,0-9.15-1.04-12.92-3.11-3.77-2.07-6.71-4.93-8.84-8.58-2.13-3.65-3.2-7.84-3.2-12.57s1.01-9.01,3.02-12.66c2.01-3.65,4.8-6.51,8.36-8.58,3.56-2.07,7.65-3.11,12.26-3.11s8.46,1.01,11.74,3.02c3.27,2.01,5.76,4.79,7.49,8.32,1.72,3.53,2.58,7.6,2.58,12.22,0,1.11-.38,2.03-1.14,2.76-.76,.73-1.72,1.09-2.89,1.09h-35.29v-7.01h35.03l-3.59,2.45c-.06-2.92-.64-5.53-1.75-7.84-1.11-2.31-2.69-4.13-4.73-5.47-2.04-1.34-4.53-2.01-7.44-2.01-3.33,0-6.17,.73-8.54,2.19-2.36,1.46-4.16,3.46-5.39,6-1.23,2.54-1.84,5.42-1.84,8.63s.73,6.07,2.19,8.58c1.46,2.51,3.47,4.5,6.04,5.96,2.57,1.46,5.52,2.19,8.85,2.19,1.81,0,3.66-.34,5.56-1.01,1.9-.67,3.43-1.44,4.6-2.32,.88-.64,1.82-.98,2.85-1.01s1.91,.28,2.67,.92c.99,.88,1.52,1.84,1.58,2.89,.06,1.05-.41,1.96-1.4,2.71-1.99,1.58-4.45,2.86-7.4,3.85-2.95,.99-5.77,1.49-8.45,1.49Z"/></g></g></g></g></svg>