<svg width="216" height="195" viewBox="0 0 216 195" fill="none" xmlns="http://www.w3.org/2000/svg">
<path d="M108.313 163.829C153.399 163.829 189.948 127.28 189.948 82.1938C189.948 37.108 153.399 0.558777 108.313 0.558777C63.227 0.558777 26.6777 37.108 26.6777 82.1938C26.6777 127.28 63.227 163.829 108.313 163.829Z" fill="white"/>
<path d="M83.048 140.013C81.398 137.813 79.328 136.023 76.838 134.623C74.338 133.233 71.368 132.533 67.898 132.533H63.898C62.588 132.533 61.298 132.613 60.028 132.783C62.138 127.033 64.148 121.473 66.048 116.103C67.948 110.733 69.638 105.913 71.118 101.643C72.598 97.3734 73.828 93.8234 74.798 90.9934C75.768 88.1634 76.378 86.4134 76.638 85.7334C77.148 84.6334 76.618 83.3234 75.058 81.8034C73.488 80.2834 71.608 78.8434 69.418 77.4934C67.218 76.1434 65.088 74.9834 63.018 74.0034C60.948 73.0334 59.698 72.5434 59.278 72.5434C58.688 73.5534 58.048 74.6534 57.378 75.8434C56.788 76.9434 56.068 78.2134 55.218 79.6434C54.368 81.0834 53.488 82.6434 52.558 84.3334C51.208 82.8934 49.408 81.5234 47.168 80.2134C44.928 78.9034 42.558 77.7634 40.068 76.7934C37.578 75.8234 35.188 75.0434 32.908 74.4434C30.628 73.8534 28.718 73.5534 27.198 73.5534C26.188 73.5534 24.978 74.2334 23.588 75.5834C22.198 76.9334 20.738 78.7334 19.208 80.9734C17.688 83.2134 16.168 85.7934 14.638 88.7134C13.118 91.6334 11.768 94.6134 10.578 97.6534C9.39799 100.693 8.41799 103.723 7.65799 106.723C6.89799 109.723 6.51799 112.453 6.51799 114.903C6.51799 116.343 7.42799 117.923 9.24799 119.653C11.068 121.383 13.218 123.033 15.718 124.603C18.208 126.173 20.768 127.603 23.388 128.913C26.008 130.223 28.168 131.213 29.858 131.893C30.698 132.403 31.548 132.653 32.398 132.653C32.988 132.653 34.008 131.643 35.438 129.613C36.878 127.583 38.548 124.963 40.448 121.753C42.348 118.543 44.418 114.923 46.658 110.913C48.898 106.903 51.118 102.903 53.318 98.9334C51.628 104.603 49.708 110.553 47.548 116.813C45.388 123.073 43.128 129.323 40.768 135.583C34.678 137.023 29.138 138.883 24.158 141.163C19.168 143.443 14.898 145.983 11.348 148.773C7.79799 151.563 5.04799 154.503 3.10799 157.583C1.16799 160.673 0.187988 163.773 0.187988 166.903C0.187988 172.903 1.05799 177.723 2.78799 181.363C4.51799 184.993 6.67799 187.833 9.25799 189.863C11.838 191.893 14.588 193.243 17.498 193.923C20.418 194.603 23.058 194.933 25.428 194.933C27.288 194.933 29.358 193.683 31.638 191.193C33.918 188.703 36.268 185.383 38.678 181.243C41.088 177.103 43.538 172.303 46.038 166.853C48.528 161.403 50.998 155.673 53.458 149.673C58.188 149.753 62.168 150.353 65.378 151.453C68.588 152.553 71.168 153.943 73.118 155.643C75.058 157.333 76.438 159.213 77.238 161.283C78.038 163.353 78.448 165.323 78.448 167.183C78.448 167.943 78.938 168.003 79.908 167.373C80.878 166.743 81.978 165.763 83.208 164.453C84.428 163.143 85.538 161.683 86.508 160.073C87.478 158.463 87.968 157.073 87.968 155.883C87.968 153.093 87.568 150.303 86.758 147.513C85.958 144.723 84.728 142.233 83.078 140.033L83.048 140.013ZM45.448 96.2634C43.588 99.3034 41.768 102.243 39.998 105.073C38.228 107.903 36.508 110.573 34.858 113.063C33.208 115.553 31.728 117.603 30.418 119.213C29.108 120.823 28.068 121.923 27.308 122.513C26.548 123.103 26.128 122.933 26.038 122.003C26.288 120.313 26.798 118.263 27.558 115.853C28.318 113.443 29.228 110.903 30.288 108.243C31.348 105.583 32.508 102.963 33.778 100.383C35.048 97.8034 36.378 95.4834 37.768 93.4134C39.158 91.3434 40.578 89.6734 42.018 88.4034C43.458 87.1334 44.808 86.5034 46.078 86.5034C47.008 86.5034 47.828 86.6134 48.548 86.8234C49.268 87.0334 49.958 87.2634 50.638 87.5234C49.028 90.3134 47.298 93.2334 45.438 96.2734L45.448 96.2634ZM28.958 164.553C27.268 168.313 25.728 171.573 24.328 174.313C22.938 177.063 21.668 179.213 20.528 180.783C19.388 182.343 18.518 183.133 17.928 183.133C17.758 183.133 17.528 183.003 17.228 182.753C16.928 182.503 16.638 181.933 16.338 181.043C16.038 180.153 15.788 178.863 15.578 177.173C15.368 175.483 15.258 173.153 15.258 170.203C15.258 166.313 17.008 162.803 20.518 159.673C24.028 156.543 28.568 154.093 34.148 152.313C32.368 156.713 30.638 160.783 28.948 164.553H28.958Z" fill="#FF8C1E"/>
<path d="M113.488 95.2434C113.848 94.3834 114.208 93.5034 114.568 92.6434L92.1181 122.513C92.7981 118.283 93.8281 113.933 95.2281 109.453C96.6181 104.973 98.0781 100.763 99.6081 96.8334C101.128 92.9034 102.568 89.4834 103.918 86.5634C105.268 83.6434 106.198 81.5934 106.708 80.4134C107.048 79.7334 106.878 78.9334 106.198 78.0034C105.518 77.0734 104.588 76.1234 103.408 75.1534C102.228 74.1834 100.868 73.2334 99.3481 72.3034C97.8281 71.3734 96.3681 70.5534 94.9681 69.8334C93.5681 69.1134 92.3481 68.5234 91.2881 68.0534C90.2281 67.5934 89.5781 67.3534 89.3181 67.3534C89.3181 67.6934 88.8981 68.8534 88.0481 70.8434C87.1981 72.8334 86.1481 75.3234 84.8781 78.3234C83.6081 81.3234 82.2181 84.6634 80.6981 88.3434C79.1781 92.0234 77.7781 95.7234 76.5181 99.4434C75.2481 103.163 74.1981 106.753 73.3481 110.223C72.5081 113.693 72.0781 116.653 72.0781 119.103C72.0781 120.373 72.8181 121.813 74.2981 123.413C75.7781 125.023 77.5281 126.583 79.5581 128.103C81.5881 129.623 83.6381 130.973 85.7081 132.163C87.7781 133.343 89.4081 134.153 90.5881 134.573C91.2681 134.993 91.9181 135.373 92.5581 135.713C93.1881 136.053 93.8481 136.223 94.5181 136.223C94.7681 136.223 95.3881 135.613 96.3581 134.383C97.3281 133.153 98.5381 131.533 99.9681 129.503C101.358 127.543 102.888 125.313 104.568 122.833C104.888 120.063 105.698 116.663 107.008 112.643C108.738 107.313 110.898 101.523 113.478 95.2734L113.488 95.2434Z" fill="#FF8C1E"/>
<path d="M94.5279 58.4134C96.3079 59.8934 98.2879 61.2234 100.488 62.4034C102.688 63.5934 104.818 64.5434 106.888 65.2534C108.958 65.9734 110.288 66.3334 110.888 66.3334C110.888 65.4034 111.138 64.1134 111.648 62.4634C112.158 60.8134 112.788 59.0634 113.548 57.2034C114.308 55.3434 115.108 53.4634 115.958 51.5634C116.798 49.6634 117.558 47.9534 118.238 46.4234C118.578 45.7434 118.408 44.9434 117.728 44.0134C117.048 43.0834 116.118 42.1334 114.938 41.1634C113.758 40.1934 112.398 39.2434 110.878 38.3134C109.358 37.3834 107.898 36.5634 106.498 35.8434C105.098 35.1234 103.878 34.5334 102.818 34.0634C101.758 33.6034 101.108 33.3634 100.848 33.3634C100.848 33.9534 100.378 35.0334 99.4579 36.5934C98.5279 38.1634 97.4879 39.9534 96.3479 41.9834C95.2079 44.0134 94.1679 46.1034 93.2379 48.2634C92.3079 50.4234 91.8379 52.3434 91.8379 54.0334C91.8379 55.4734 92.7279 56.9334 94.4979 58.4134H94.5279Z" fill="#FF8C1E"/>
<path d="M172.898 75.5934C171.888 73.9034 170.698 72.3834 169.348 71.0334C167.998 69.6834 166.558 69.0034 165.038 69.0034C163.598 69.0034 161.738 69.7434 159.458 71.2234C157.178 72.7034 154.658 74.6734 151.918 77.1234C149.168 79.5734 146.338 82.4034 143.418 85.6234C140.498 88.8334 137.648 92.1334 134.858 95.5134C137.138 90.4434 139.488 85.4334 141.898 80.4834C144.308 75.5334 146.508 71.0334 148.488 66.9734C150.478 62.9134 152.098 59.4934 153.368 56.7034C154.638 53.9134 155.268 52.1334 155.268 51.3734C155.268 49.6834 154.398 48.0134 152.668 46.3634C150.938 44.7134 148.988 43.2534 146.838 41.9834C144.678 40.7134 142.608 39.6834 140.628 38.8734C138.638 38.0734 137.398 37.6634 136.888 37.6634C137.398 38.4234 136.928 40.6634 135.498 44.3834C134.058 48.1034 132.138 52.6934 129.728 58.1434C127.318 63.5934 124.658 69.5834 121.738 76.0834C119.228 81.6934 116.838 87.2034 114.578 92.6234L119.388 86.2234C120.228 85.0434 120.998 84.4434 121.668 84.4434C122.258 84.4434 122.788 85.0134 123.248 86.1534C123.708 87.2934 123.948 89.6034 123.948 93.0634C118.788 101.093 114.138 108.283 109.998 114.623C108.218 117.333 106.468 119.973 104.738 122.553C104.688 122.633 104.628 122.713 104.578 122.793C104.478 123.683 104.418 124.523 104.418 125.283C104.418 127.063 105.328 128.813 107.148 130.543C108.968 132.273 111.038 133.823 113.358 135.173C115.678 136.523 117.938 137.623 120.138 138.473C122.338 139.313 123.768 139.743 124.448 139.743C124.368 139.573 124.318 139.403 124.318 139.233C124.318 139.063 124.298 138.893 124.258 138.723C124.218 138.553 124.198 138.303 124.198 137.963C124.618 136.953 125.258 135.463 126.098 133.523C126.938 131.573 127.878 129.573 128.888 127.503C129.898 125.433 130.938 123.463 131.998 121.603C133.058 119.743 134.008 118.393 134.848 117.543C136.628 126.253 138.988 133.983 141.948 140.753C143.218 143.623 144.678 146.463 146.328 149.253C147.978 152.043 149.838 154.513 151.908 156.673C153.978 158.833 156.258 160.563 158.758 161.873C161.248 163.183 163.978 163.833 166.938 163.833C169.048 163.833 171.038 163.303 172.898 162.253C174.758 161.193 176.318 160.013 177.588 158.703C178.858 157.393 179.718 156.213 180.188 155.153C180.648 154.093 180.548 153.573 179.868 153.573C177.668 153.573 175.278 152.643 172.698 150.783C170.118 148.923 167.578 146.513 165.088 143.553C162.598 140.593 160.188 137.313 157.858 133.723C155.528 130.133 153.458 126.583 151.648 123.073C149.828 119.563 148.398 116.333 147.338 113.373C146.278 110.413 145.758 108.093 145.758 106.393C147.368 103.943 149.558 101.363 152.348 98.6534C154.718 96.3734 157.838 93.7734 161.728 90.8534C165.308 88.1634 169.718 85.4634 174.948 82.7434C175.218 82.1034 175.478 81.4734 175.738 80.8534C174.818 78.9534 173.868 77.1834 172.888 75.5734L172.898 75.5934Z" fill="#FF8C1E"/>
<path d="M109.998 114.653C114.138 108.313 118.788 101.123 123.948 93.0934C123.948 89.6234 123.718 87.3234 123.248 86.1834C122.778 85.0434 122.248 84.4734 121.668 84.4734C120.988 84.4734 120.228 85.0634 119.388 86.2534L114.578 92.6534C114.218 93.5234 113.848 94.3934 113.498 95.2534C110.918 101.513 108.768 107.303 107.028 112.623C105.718 116.653 104.908 120.043 104.588 122.813C104.638 122.733 104.698 122.653 104.748 122.573C106.478 119.993 108.238 117.353 110.008 114.643L109.998 114.653Z" fill="#FF8C1E"/>
<path d="M186.468 58.4134C188.248 59.8934 190.228 61.2234 192.428 62.4034C194.628 63.5934 196.758 64.5434 198.828 65.2534C200.898 65.9734 202.228 66.3334 202.828 66.3334C202.828 65.4034 203.078 64.1134 203.588 62.4634C204.098 60.8134 204.728 59.0634 205.488 57.2034C206.248 55.3434 207.048 53.4634 207.898 51.5634C208.738 49.6634 209.498 47.9534 210.178 46.4234C210.518 45.7434 210.348 44.9434 209.668 44.0134C208.988 43.0834 208.058 42.1334 206.878 41.1634C205.698 40.1934 204.338 39.2434 202.818 38.3134C201.298 37.3834 199.838 36.5634 198.438 35.8434C197.038 35.1234 195.818 34.5334 194.758 34.0634C193.698 33.6034 193.048 33.3634 192.788 33.3634C192.788 33.9534 192.318 35.0334 191.398 36.5934C190.468 38.1634 189.428 39.9534 188.288 41.9834C187.148 44.0134 186.108 46.1034 185.178 48.2634C184.248 50.4234 183.778 52.3434 183.778 54.0334C183.778 55.4734 184.668 56.9334 186.438 58.4134H186.468Z" fill="#FF8C1E"/>
<path d="M215.188 86.1834C214.718 85.0434 214.188 84.4734 213.608 84.4734C212.928 84.4734 212.168 85.0634 211.328 86.2534L184.068 122.523C184.748 118.293 185.778 113.943 187.178 109.463C188.568 104.983 190.028 100.773 191.558 96.8434C193.078 92.9134 194.518 89.4934 195.868 86.5734C197.218 83.6534 198.148 81.6034 198.658 80.4234C198.998 79.7434 198.828 78.9434 198.148 78.0134C197.468 77.0834 196.538 76.1334 195.358 75.1634C194.178 74.1934 192.818 73.2434 191.298 72.3134C189.778 71.3834 188.318 70.5634 186.918 69.8434C185.518 69.1234 184.298 68.5334 183.238 68.0634C182.178 67.6034 181.528 67.3634 181.268 67.3634C181.268 67.7034 180.848 68.8634 179.998 70.8534C179.148 72.8434 178.098 75.3334 176.828 78.3334C176.478 79.1534 176.118 80.0134 175.748 80.8834C175.938 81.2734 176.128 81.6634 176.318 82.0734C175.858 82.3134 175.408 82.5434 174.958 82.7734C174.218 84.5334 173.448 86.3934 172.638 88.3434C171.118 92.0234 169.718 95.7234 168.458 99.4434C167.188 103.163 166.138 106.753 165.288 110.223C164.448 113.693 164.018 116.653 164.018 119.103C164.018 120.373 164.758 121.813 166.238 123.413C167.718 125.023 169.468 126.583 171.498 128.103C173.528 129.623 175.578 130.973 177.648 132.163C179.718 133.343 181.348 134.153 182.528 134.573C183.208 134.993 183.858 135.373 184.498 135.713C185.128 136.053 185.788 136.223 186.458 136.223C186.708 136.223 187.328 135.613 188.298 134.383C189.268 133.153 190.478 131.533 191.908 129.503C193.348 127.473 194.928 125.173 196.668 122.593C198.398 120.013 200.158 117.373 201.928 114.663C206.068 108.323 210.718 101.133 215.878 93.1034C215.878 89.6334 215.648 87.3334 215.178 86.1934L215.188 86.1834Z" fill="#FF8C1E"/>
<path d="M175.748 80.8734C175.488 81.4934 175.228 82.1234 174.958 82.7634C175.408 82.5334 175.858 82.2934 176.318 82.0634C176.128 81.6634 175.938 81.2734 175.748 80.8734Z" fill="#FF8C1E"/>
</svg>
